<svg id="visual" viewBox="0 0 900 600" width="900" height="600" xmlns="http://www.w3.org/2000/svg" xmlns:xlink="http://www.w3.org/1999/xlink" version="1.1"><path d="M0 283L16.7 265C33.3 247 66.7 211 100 199C133.3 187 166.7 199 200 213C233.3 227 266.7 243 300 237C333.3 231 366.7 203 400 193C433.3 183 466.7 191 500 181C533.3 171 566.7 143 600 150C633.3 157 666.7 199 700 202C733.3 205 766.7 169 800 159C833.3 149 866.7 165 883.3 173L900 181L900 0L883.3 0C866.7 0 833.3 0 800 0C766.7 0 733.3 0 700 0C666.7 0 633.3 0 600 0C566.7 0 533.3 0 500 0C466.7 0 433.3 0 400 0C366.7 0 333.3 0 300 0C266.7 0 233.3 0 200 0C166.7 0 133.3 0 100 0C66.7 0 33.3 0 16.7 0L0 0Z" fill="#7aaafc"></path><path d="M0 379L16.7 365C33.3 351 66.7 323 100 314C133.3 305 166.7 315 200 321C233.3 327 266.7 329 300 317C333.3 305 366.7 279 400 282C433.3 285 466.7 317 500 321C533.3 325 566.7 301 600 308C633.3 315 666.7 353 700 340C733.3 327 766.7 263 800 246C833.3 229 866.7 259 883.3 274L900 289L900 179L883.3 171C866.7 163 833.3 147 800 157C766.7 167 733.3 203 700 200C666.7 197 633.3 155 600 148C566.7 141 533.3 169 500 179C466.7 189 433.3 181 400 191C366.7 201 333.3 229 300 235C266.7 241 233.3 225 200 211C166.7 197 133.3 185 100 197C66.7 209 33.3 245 16.7 263L0 281Z" fill="#528ff8"></path><path d="M0 445L16.7 436C33.3 427 66.7 409 100 406C133.3 403 166.7 415 200 422C233.3 429 266.7 431 300 418C333.3 405 366.7 377 400 383C433.3 389 466.7 429 500 430C533.3 431 566.7 393 600 392C633.3 391 666.7 427 700 422C733.3 417 766.7 371 800 360C833.3 349 866.7 373 883.3 385L900 397L900 287L883.3 272C866.7 257 833.3 227 800 244C766.7 261 733.3 325 700 338C666.7 351 633.3 313 600 306C566.7 299 533.3 323 500 319C466.7 315 433.3 283 400 280C366.7 277 333.3 303 300 315C266.7 327 233.3 325 200 319C166.7 313 133.3 303 100 312C66.7 321 33.3 349 16.7 363L0 377Z" fill="#3576e1"></path><path d="M0 601L16.7 601C33.3 601 66.7 601 100 601C133.3 601 166.7 601 200 601C233.3 601 266.7 601 300 601C333.3 601 366.7 601 400 601C433.3 601 466.7 601 500 601C533.3 601 566.7 601 600 601C633.3 601 666.7 601 700 601C733.3 601 766.7 601 800 601C833.3 601 866.7 601 883.3 601L900 601L900 395L883.3 383C866.7 371 833.3 347 800 358C766.7 369 733.3 415 700 420C666.7 425 633.3 389 600 390C566.7 391 533.3 429 500 428C466.7 427 433.3 387 400 381C366.7 375 333.3 403 300 416C266.7 429 233.3 427 200 420C166.7 413 133.3 401 100 404C66.7 407 33.3 425 16.7 434L0 443Z" fill="#295eb8"></path></svg>